<?xml version="1.0" encoding="UTF-8"?>
<svg width="200px" height="138px" viewBox="0 0 200 138" version="1.1" xmlns="http://www.w3.org/2000/svg" xmlns:xlink="http://www.w3.org/1999/xlink">
    <!-- Generator: Sketch 46.2 (44496) - http://www.bohemiancoding.com/sketch -->
    <title>logo-flor</title>
    <desc>Created with Sketch.</desc>
    <defs></defs>
    <g id="Page-1" stroke="none" stroke-width="1" fill="none" fill-rule="evenodd">
        <g id="logo-flor" fill-rule="nonzero" fill="#6F6F6E">
            <path d="M117.01988,37.5202382 C118.568573,36.6825412 120.014647,35.6249488 121.298418,34.3474609 C124.757059,30.8898666 126.669102,26.2961458 126.669102,21.3956185 L126.646066,20.9809585 L126.646066,3.0971751 L108.321444,3.0971751 C103.424058,3.0971751 98.8114893,5.0060771 95.3476123,8.4615772 C94.5968264,9.2134102 93.9486584,10.0301648 93.3455166,10.8793801 C95.0439472,11.7087001 96.614629,12.8060831 97.9936877,14.1767648 C100.479553,16.6615835 102.116204,19.7610623 102.765419,23.1348868 L108.571706,23.1348868 L108.574848,33.5003398 C111.758096,33.8532197 114.702601,35.246938 117.01988,37.5202382 Z M118.504698,47.7453769 L118.504698,47.7380471 C118.504698,44.6584635 117.299462,41.7610791 115.122497,39.5841141 C113.300506,37.7736415 110.981132,36.637515 108.470135,36.3076718 C107.718302,42.0081997 102.825105,46.4301927 96.907823,46.4301927 C96.4198645,46.4301927 95.9434243,46.3893549 95.4680313,46.3317633 C95.4146281,46.7914495 95.379026,47.2657954 95.379026,47.7401413 C95.379026,54.103497 100.563323,59.27837 106.940291,59.27837 C106.940291,59.27837 116.255482,59.2804643 118.492133,59.2804643 L118.492133,48.0102986 L118.501557,47.8218168 C118.501557,47.8218168 118.504698,47.7684136 118.504698,47.7453769 Z M92.1737879,56.392504 C92.9245738,55.641718 93.5109617,54.7705132 93.9434228,53.8291512 C93.0669823,51.978888 92.5675055,49.9202477 92.5675055,47.7401413 C92.5675055,47.0333345 92.6345213,46.3359517 92.7381863,45.6542758 C91.3873999,45.128621 90.152844,44.3663167 89.0983929,43.4134364 C87.99368,43.6322847 86.8680247,43.7516566 85.7151442,43.7516566 C83.9674989,43.7516566 82.2847751,43.4888291 80.6952451,43.0071534 C78.4889607,44.6207672 77.0397449,47.2228634 77.0397449,50.1726039 L77.0397449,50.1778395 C77.0397449,50.1778395 77.0523104,50.3359548 77.0523104,50.3799339 L77.0523104,58.9872703 C79.1455057,58.9872703 85.9025789,58.9851761 85.9025789,58.9851761 C88.2711671,58.9851761 90.4962997,58.0678979 92.1737879,56.392504 Z M105.770657,34.7422256 C105.770657,34.7422256 105.76228,34.5788747 105.76228,34.5485082 L105.76228,25.9411717 L96.907823,25.9411717 C94.5392348,25.9411717 92.3172435,26.8647326 90.6408025,28.5286083 C88.9643614,30.1987666 88.0460361,32.4197107 88.0460361,34.7820162 L88.0460361,34.7830633 C88.0460361,39.6584597 92.0209082,43.6270491 96.9120114,43.6270491 C101.793691,43.6270491 105.770657,39.6616011 105.770657,34.7474612 L105.770657,34.7422256 Z M71.1612064,26.4333187 C71.1612064,34.4322777 77.6889601,40.9516544 85.7151442,40.9516544 C86.1392283,40.9516544 86.5622653,40.9160523 86.9790195,40.8814973 C85.8805894,39.1034855 85.2355627,37.0228556 85.2355627,34.7830633 C85.2355627,31.6720662 86.4481291,28.7485037 88.6544135,26.5464078 C90.8606979,24.3474532 93.7874017,23.135934 96.907823,23.135934 L99.8910713,23.135934 C99.2858353,20.5160367 97.9549442,18.1097521 96.0052045,16.1589653 C93.2554641,13.4207433 89.6020582,11.9097473 85.6879191,11.9087002 L82.2659269,11.9087002 L71.1779603,11.9087002 L71.1779603,26.0626378 L71.1779603,26.0479781 L71.1643477,26.3317479 C71.1643477,26.3317479 71.1612064,26.4155176 71.1612064,26.4333187 Z M129.480623,21.4039955 C129.480623,27.0437904 127.278527,32.344318 123.286901,36.3317556 C121.946586,37.6636938 120.448155,38.7903962 118.850248,39.7118629 C120.452344,42.0636972 121.320407,44.8280972 121.320407,47.7129161 C121.320407,47.7129161 121.303653,48.0113457 121.303653,48.039618 L121.303653,62.0846549 L106.940291,62.0825607 C102.350759,62.0825607 98.2711748,59.9202553 95.6334764,56.5715617 C95.206251,57.213447 94.7193396,57.8207773 94.1580826,58.3778458 C91.9528453,60.5788946 89.021953,61.7904138 85.9025789,61.7904138 L74.2397428,61.7904138 L74.2386956,50.3799339 L74.2261302,50.1464259 C74.2261302,46.8773134 75.5926234,43.9338557 77.7716826,41.8144823 C72.1852909,38.9348989 68.3486388,33.1286118 68.3486388,26.4437899 L68.3622513,26.1212766 C68.3622513,26.1212766 68.3695812,26.0479781 68.3695812,26.0416954 L68.3695812,9.1045096 L80.279538,9.1045096 L85.7151442,9.1045096 C87.4177633,9.1045096 89.0826861,9.3537244 90.6690747,9.8217876 C91.4544156,8.6385407 92.3329503,7.5066026 93.3612234,6.4804238 C97.3601793,2.4887977 102.671178,0.2940316 108.350764,0.2940316 L129.457586,0.2940316 C129.457586,0.2940316 129.455492,20.8783406 129.455492,20.9244139 C129.457586,20.9348852 129.462822,21.0511156 129.462822,21.0511156 C129.462822,21.0511156 129.480623,21.4081839 129.480623,21.4039955 Z" id="Fill-1"></path>
            <path d="M49.854279,78.66938 C43.37574,75.728016 35.9359438,74.251575 27.5296546,74.251575 C20.8511155,74.251575 15.7474466,75.005503 12.2102711,76.508121 C8.67518989,78.005505 6.90869639,80.132208 6.90869639,82.890325 C6.90869639,85.604464 8.61236262,87.539544 12.0259778,88.688236 C15.0395927,89.718603 20.1579212,90.359441 27.3767749,90.601326 C33.5579315,90.81075 37.7338509,91.017033 39.9087217,91.221222 C43.8668399,91.555253 47.0280989,92.156301 49.4008756,93.021223 C54.639623,94.928031 57.2637088,98.256829 57.2637088,103.014948 C57.2637088,107.567831 54.8762724,111.114431 50.1066353,113.656841 C45.3328096,116.206581 38.4961552,117.472551 29.5935305,117.472551 C17.5254585,117.472551 7.68461322,115.258937 0.0709948188,110.831708 L2.8877509,107.420187 C10.7003223,111.585635 19.2563498,113.669406 28.5505978,113.669406 C35.9684045,113.669406 41.6678853,112.748987 45.6438046,110.903959 C49.6239124,109.062073 51.6134427,106.505003 51.6134427,103.231702 C51.6134427,100.166778 49.8123942,97.970965 46.2008731,96.64531 C42.986211,95.442167 37.5254738,94.698711 29.813426,94.406565 C24.1275578,94.20447 20.1715338,93.99714 17.9453541,93.78981 C14.2354036,93.501852 11.2982286,93.008658 9.12126354,92.307086 C3.88042182,90.662059 1.25947741,87.677764 1.25947741,83.3542 C1.25947741,79.320689 3.50974091,76.161524 8.01340928,73.877753 C12.5139363,71.587699 18.9160354,70.448431 27.2259895,70.448431 C38.4521761,70.448431 47.1338581,72.159427 53.2668471,75.581419 L49.854279,78.66938 Z" id="Fill-3"></path>
            <polygon id="Fill-5" points="126.217898 116.406686 121.404282 116.406686 121.404282 94.583633 74.3791146 94.583633 74.3791146 116.406686 69.5644512 116.406686 69.5644512 71.518694 74.3791146 71.518694 74.3791146 90.662164 121.404282 90.662164 121.404282 71.518694 126.217898 71.518694"></polygon>
            <path d="M184.408832,100.828664 L168.343899,75.427597 L167.605678,75.424456 L151.451739,100.828664 L184.408832,100.828664 Z M199.765912,116.406686 L194.218264,116.406686 L186.878991,104.75118 L149.041266,104.75118 L141.522936,116.406686 L135.960628,116.406686 L164.377403,71.520788 L171.503063,71.520788 L199.765912,116.406686 Z" id="Fill-7"></path>
            <polygon id="Fill-9" points="32.4040039 129.170465 29.7191851 137.504503 28.5851528 137.504503 26.3045228 129.828058 24.1317462 137.504503 22.9820071 137.504503 20.3149894 129.170465 21.1736288 129.170465 23.5369814 136.860524 25.7244176 129.170465 26.8856751 129.170465 29.1788705 136.856335 31.5568828 129.170465"></polygon>
            <polygon id="Fill-11" points="43.7663163 137.504503 35.6731163 137.504503 35.6731163 129.170465 43.4438029 129.170465 43.4438029 129.886696 36.4228551 129.886696 36.4228551 132.726489 41.3013929 132.726489 41.3013929 133.443767 36.4228551 133.443767 36.4228551 136.791414 43.7663163 136.791414"></polygon>
            <polygon id="Fill-13" points="54.4993088 137.504503 47.3129158 137.504503 47.3129158 129.170465 48.0626546 129.170465 48.0626546 136.791414 54.4993088 136.791414"></polygon>
            <polygon id="Fill-15" points="64.8023533 137.504503 57.6170075 137.504503 57.6170075 129.170465 58.3667463 129.170465 58.3667463 136.791414 64.8023533 136.791414"></polygon>
            <polygon id="Fill-17" points="76.7639332 137.504503 75.6979638 137.504503 68.6707333 129.89612 68.6707333 137.504503 67.9241358 137.504503 67.9241358 129.170465 69.005812 129.170465 76.0204771 136.780943 76.0204771 129.170465 76.7639332 129.170465"></polygon>
            <polygon id="Fill-19" points="89.3713774 137.504503 81.2781775 137.504503 81.2781775 129.170465 89.0488641 129.170465 89.0488641 129.886696 82.0268691 129.886696 82.0268691 132.726489 86.9075012 132.726489 86.9075012 133.443767 82.0268691 133.443767 82.0268691 136.791414 89.3713774 136.791414"></polygon>
            <path d="M100.113061,130.495702 C99.1120131,129.952246 97.9538971,129.6779 96.6481369,129.6779 C95.6156754,129.6779 94.8198632,129.81612 94.2743131,130.098843 C93.7245744,130.375283 93.4470873,130.771095 93.4470873,131.278949 C93.4470873,131.784708 93.7141032,132.147012 94.2418523,132.362719 C94.7120098,132.552248 95.508869,132.667432 96.6261474,132.71874 C97.5874046,132.75539 98.2334784,132.796227 98.5706515,132.83183 C99.1821703,132.892563 99.6764115,133.004605 100.042904,133.165861 C100.859658,133.519788 101.2628,134.136543 101.2628,135.018219 C101.2628,135.864293 100.895261,136.523979 100.154946,136.994136 C99.4156783,137.466388 98.350756,137.703037 96.9716974,137.703037 C95.0973504,137.703037 93.573789,137.289425 92.390542,136.469529 L92.8271916,135.838115 C94.0387108,136.60356 95.3696019,136.989948 96.8093936,136.989948 C97.962274,136.989948 98.8470915,136.815079 99.464893,136.478953 C100.081647,136.137591 100.38636,135.66534 100.38636,135.061151 C100.38636,134.494658 100.113061,134.090469 99.5486627,133.842302 C99.0533743,133.621359 98.204159,133.485233 97.0041581,133.430783 C96.122482,133.392039 95.508869,133.353296 95.1643661,133.316647 C94.5874023,133.265338 94.1298104,133.171097 93.7915902,133.03916 C92.9800713,132.7334 92.571694,132.174237 92.571694,131.370048 C92.571694,130.616121 92.9203854,130.027639 93.6219566,129.601461 C94.3172451,129.177376 95.3120102,128.962717 96.6041578,128.962717 C98.3444733,128.962717 99.6921183,129.282089 100.643951,129.919785 L100.113061,130.495702 Z" id="Fill-21"></path>
            <path d="M112.443751,130.495702 C111.43642,129.952246 110.28354,129.6779 108.979874,129.6779 C107.940083,129.6779 107.150553,129.81612 106.600815,130.098843 C106.052123,130.375283 105.777777,130.771095 105.777777,131.278949 C105.777777,131.784708 106.041652,132.147012 106.569401,132.362719 C107.041653,132.552248 107.837465,132.667432 108.95579,132.71874 C109.914953,132.75539 110.563121,132.796227 110.902389,132.83183 C111.514955,132.892563 112.007102,133.004605 112.374641,133.165861 C113.189301,133.519788 113.598726,134.136543 113.598726,135.018219 C113.598726,135.864293 113.222809,136.523979 112.485636,136.994136 C111.743227,137.466388 110.680399,137.703037 109.302387,137.703037 C107.423852,137.703037 105.901338,137.289425 104.718091,136.469529 L105.157882,135.838115 C106.370448,136.60356 107.696103,136.989948 109.140084,136.989948 C110.291917,136.989948 111.177782,136.815079 111.794536,136.478953 C112.412337,136.137591 112.720191,135.66534 112.720191,135.061151 C112.720191,134.494658 112.443751,134.090469 111.879353,133.842302 C111.380923,133.621359 110.531708,133.485233 109.333801,133.430783 C108.451078,133.392039 107.838512,133.353296 107.491915,133.316647 C106.915998,133.265338 106.462595,133.171097 106.124375,133.03916 C105.308667,132.7334 104.901337,132.174237 104.901337,131.370048 C104.901337,130.616121 105.25317,130.027639 105.950552,129.601461 C106.650029,129.177376 107.6427,128.962717 108.931707,128.962717 C110.67621,128.962717 112.022808,129.282089 112.974642,129.919785 L112.443751,130.495702 Z" id="Fill-23"></path>
            <path d="M131.141671,130.759577 L130.474655,131.025545 C129.575178,130.091513 128.356329,129.620309 126.827532,129.620309 C125.689311,129.620309 124.733289,129.926068 123.95842,130.537587 C123.062084,131.252771 122.610775,132.178426 122.610775,133.322929 C122.610775,134.423454 122.997162,135.318742 123.776221,136.000418 C124.553184,136.682094 125.565751,137.023456 126.827532,137.023456 C128.457899,137.023456 129.675701,136.561675 130.474655,135.642303 L131.096645,136.04335 C130.243241,137.1711 128.854758,137.736545 126.929103,137.736545 C125.863133,137.736545 124.907111,137.518744 124.073603,137.078953 C123.348995,136.699895 122.792974,136.18157 122.404492,135.534449 C122.010774,134.88314 121.818104,134.14492 121.818104,133.316647 C121.818104,131.979473 122.333287,130.891514 123.357372,130.043346 C124.287216,129.287324 125.446379,128.907219 126.827532,128.907219 C128.744811,128.907219 130.182508,129.523974 131.141671,130.759577" id="Fill-25"></path>
            <polygon id="Fill-27" points="142.300004 137.504503 135.116753 137.504503 135.116753 129.170465 135.864397 129.170465 135.864397 136.791414 142.300004 136.791414"></polygon>
            <polygon id="Fill-29" points="145.41896 137.504817 146.168698 137.504817 146.168698 129.17078 145.41896 129.17078"></polygon>
            <polygon id="Fill-31" points="159.525358 137.504503 158.457294 137.504503 151.431111 129.89612 151.431111 137.504503 150.681372 137.504503 150.681372 129.170465 151.763048 129.170465 158.774572 136.780943 158.774572 129.170465 159.525358 129.170465"></polygon>
            <polygon id="Fill-32" points="164.037822 137.504817 164.786514 137.504817 164.786514 129.17078 164.037822 129.17078"></polygon>
            <path d="M178.143487,130.759577 L177.474377,131.025545 C176.576994,130.091513 175.359192,129.620309 173.824112,129.620309 C172.687986,129.620309 171.733011,129.926068 170.957094,130.537587 C170.058664,131.252771 169.607355,132.178426 169.607355,133.322929 C169.607355,134.423454 169.998978,135.318742 170.771754,136.000418 C171.546624,136.682094 172.563378,137.023456 173.824112,137.023456 C175.459716,137.023456 176.677518,136.561675 177.474377,135.642303 L178.09532,136.04335 C177.24401,137.1711 175.853433,137.736545 173.927777,137.736545 C172.860761,137.736545 171.908928,137.518744 171.071231,137.078953 C170.350811,136.699895 169.791648,136.18157 169.404214,135.534449 C169.01259,134.88314 168.817826,134.14492 168.817826,133.316647 C168.817826,131.979473 169.327774,130.891514 170.359188,130.043346 C171.28589,129.287324 172.441912,128.907219 173.824112,128.907219 C175.743485,128.907219 177.18223,129.523974 178.143487,130.759577" id="Fill-33"></path>
        </g>
    </g>
</svg>