<?xml version="1.0" encoding="UTF-8" standalone="no"?>
<svg width="66px" height="9px" viewBox="0 0 66 9" version="1.1" xmlns="http://www.w3.org/2000/svg" xmlns:xlink="http://www.w3.org/1999/xlink">
    <!-- Generator: Sketch 42 (36781) - http://www.bohemiancoding.com/sketch -->
    <title>Page 1</title>
    <desc>Created with Sketch.</desc>
    <defs>
        <polygon id="path-1" points="0 0.665754545 0 5.70493636 4.53882 5.70493636 4.53882 0.665754545 2.23616698e-20 0.665754545"></polygon>
        <polygon id="path-3" points="3.9897 5.69454545 3.9897 0.675818182 0.1033725 0.675818182 0.1033725 5.69454545"></polygon>
        <polygon id="path-5" points="0.056265 8.18181818 6.730515 8.18181818 6.730515 0.00040909091 0.056265 0.00040909091"></polygon>
    </defs>
    <g id="Symbols" stroke="none" stroke-width="1" fill="none" fill-rule="evenodd">
        <g id="FOOTER" transform="translate(-671.000000, -74.000000)">
            <g id="Group" transform="translate(633.000000, 68.000000)">
                <g id="Page-1" transform="translate(38.000000, 6.000000)">
                    <g id="Group-3" transform="translate(0.000000, 1.636364)">
                        <mask id="mask-2" fill="white">
                            <use xlink:href="#path-1"></use>
                        </mask>
                        <g id="Clip-2"></g>
                        <path d="M2.523345,5.70493636 C2.16117,5.70493636 1.825395,5.64357273 1.51767,5.51184545 C1.208295,5.38339091 0.942645,5.20666364 0.71742,4.98002727 C0.49137,4.75502727 0.315645,4.48993636 0.190245,4.1823 C0.064845,3.8763 -0.00033,3.54739091 -0.00033,3.19966364 L-0.00033,3.18657273 C-0.00033,2.83720909 0.064845,2.51239091 0.190245,2.20720909 C0.315645,1.90120909 0.49137,1.6353 0.71742,1.40293636 C0.942645,1.17711818 1.209945,0.993845455 1.52427,0.862936364 C1.838595,0.730390909 2.186745,0.665754545 2.56542,0.665754545 C2.792295,0.665754545 3.003495,0.682936364 3.194895,0.718936364 C3.38382,0.755754545 3.554595,0.8073 3.70887,0.873572727 C3.86397,0.939845455 4.00752,1.01757273 4.13787,1.10920909 C4.26987,1.2033 4.391145,1.30557273 4.504995,1.41520909 L3.815295,2.20393636 C3.622245,2.02966364 3.425895,1.89711818 3.227895,1.79975455 C3.02907,1.69993636 2.805495,1.65411818 2.55717,1.65411818 C2.35092,1.65411818 2.15952,1.69339091 1.985445,1.7703 C1.80807,1.84966364 1.65957,1.96093636 1.53252,2.09920909 C1.40547,2.24157273 1.30647,2.4003 1.23717,2.58357273 C1.16622,2.76439091 1.13157,2.96157273 1.13157,3.17020909 L1.13157,3.18657273 C1.13157,3.39602727 1.16622,3.59075455 1.23717,3.77811818 C1.30647,3.96466364 1.40382,4.12584545 1.52757,4.26575455 C1.65132,4.40648182 1.80147,4.51693636 1.97637,4.59711818 C2.15292,4.67893636 2.34597,4.71820909 2.55717,4.71820909 C2.83932,4.71820909 3.076095,4.66748182 3.270795,4.56439091 C3.46632,4.46293636 3.65772,4.32466364 3.84912,4.14711818 L4.53882,4.83602727 C4.41177,4.97184545 4.280595,5.09457273 4.143645,5.1993 C4.00752,5.30484545 3.85902,5.3973 3.699795,5.47666364 C3.538095,5.5503 3.361545,5.60920909 3.16932,5.65011818 C2.97792,5.68775455 2.76177,5.70493636 2.523345,5.70493636" id="Fill-1" fill="#FFFFFF" mask="url(#mask-2)"></path>
                    </g>
                    <path d="M8.00349,4.75167273 C8.27079,4.75167273 8.47374,4.69030909 8.61729,4.56430909 C8.75919,4.43830909 8.83179,4.27467273 8.83179,4.06685455 L8.83179,4.05294545 C8.83179,3.82221818 8.75754,3.64876364 8.60739,3.53258182 C8.456415,3.41803636 8.248515,3.36076364 7.981215,3.36076364 L6.90789,3.36076364 L6.90789,4.75167273 L8.00349,4.75167273 Z M5.824665,2.38385455 L8.07279,2.38385455 C8.69484,2.38385455 9.17334,2.54749091 9.50664,2.87803636 C9.78549,3.15621818 9.92739,3.52930909 9.92739,3.99321818 L9.92739,4.00794545 C9.92739,4.40067273 9.829215,4.72385455 9.634515,4.97258182 C9.44064,5.21967273 9.189015,5.40376364 8.873865,5.51830909 L10.07589,7.2594 L8.809515,7.2594 L7.756815,5.69994545 L6.90789,5.69994545 L6.90789,7.2594 L5.824665,7.2594 L5.824665,2.38385455 Z" id="Fill-4" fill="#FFFFFF"></path>
                    <polygon id="Fill-6" fill="#FFFFFF" points="11.293425 2.38426364 14.99685 2.38426364 14.99685 3.33662727 12.359325 3.33662727 12.359325 4.32744545 14.679225 4.32744545 14.679225 5.28144545 12.359325 5.28144545 12.359325 6.30662727 15.032325 6.30662727 15.032325 7.25980909 11.293425 7.25980909"></polygon>
                    <path d="M18.4368525,4.84355455 C18.7091025,4.84355455 18.9203025,4.77155455 19.0704525,4.63082727 C19.2181275,4.49091818 19.2940275,4.31582727 19.2940275,4.10964545 L19.2940275,4.0941 C19.2940275,3.85355455 19.2148275,3.67028182 19.0572525,3.54428182 C18.9005025,3.42155455 18.6843525,3.36100909 18.4178775,3.36100909 L17.5796775,3.36100909 L17.5796775,4.84355455 L18.4368525,4.84355455 Z M16.4964525,2.3841 L18.5078025,2.3841 C18.8006775,2.3841 19.0671525,2.42337273 19.2973275,2.50437273 C19.5291525,2.58700909 19.7246775,2.70073636 19.8888525,2.84964545 C20.0497275,2.99937273 20.1734775,3.17691818 20.2592775,3.3831 C20.3475525,3.59091818 20.3912775,3.82000909 20.3912775,4.07037273 L20.3912775,4.08264545 C20.3912775,4.36491818 20.3384775,4.61446364 20.2337025,4.82882727 C20.1338775,5.04319091 19.9886775,5.22073636 19.8113025,5.36637273 C19.6289775,5.50873636 19.4194275,5.61919091 19.1760525,5.68873636 C18.9359775,5.76237273 18.6769275,5.79673636 18.4013775,5.79673636 L17.5796775,5.79673636 L17.5796775,7.25964545 L16.4964525,7.25964545 L16.4964525,2.3841 Z" id="Fill-8" fill="#FFFFFF"></path>
                    <polygon id="Fill-10" fill="#FFFFFF" points="21.60147 2.38426364 25.30242 2.38426364 25.30242 3.33662727 22.669845 3.33662727 22.669845 4.32744545 24.98727 4.32744545 24.98727 5.28144545 22.669845 5.28144545 22.669845 6.30662727 25.336245 6.30662727 25.336245 7.25980909 21.60147 7.25980909"></polygon>
                    <path d="M28.5333675,7.33090909 C28.1596425,7.33090909 27.7925175,7.26627273 27.4344675,7.137 C27.0706425,7.00936364 26.7431175,6.81381818 26.4502425,6.55118182 L27.0879675,5.79027273 C27.3115425,5.97109091 27.5425425,6.11672727 27.7809675,6.22390909 C28.0144425,6.33027273 28.2751425,6.38263636 28.5556425,6.38263636 C28.7816925,6.38263636 28.9541175,6.34090909 29.0795175,6.26072727 C29.2049175,6.17972727 29.2651425,6.06681818 29.2651425,5.92445455 L29.2651425,5.91136364 C29.2651425,5.83936364 29.2535925,5.77963636 29.2280175,5.724 C29.2016175,5.67163636 29.1504675,5.62009091 29.0795175,5.57509091 C29.0069175,5.52763636 28.9054425,5.48263636 28.7783925,5.43518182 C28.6480425,5.39018182 28.4813925,5.33863636 28.2751425,5.28954545 C28.0276425,5.22736364 27.8015925,5.16354545 27.6002925,5.08745455 C27.4006425,5.01381818 27.2265675,4.92218182 27.0879675,4.81090909 C26.9477175,4.70372727 26.8379925,4.56627273 26.7612675,4.40427273 C26.6837175,4.24063636 26.6465925,4.03854545 26.6465925,3.798 L26.6465925,3.78409091 C26.6465925,3.56072727 26.6853675,3.36027273 26.7703425,3.18190909 C26.8544925,3.00027273 26.9716425,2.84890909 27.1234425,2.71881818 C27.2735925,2.58709091 27.4550925,2.48809091 27.6646425,2.41854545 C27.8758425,2.34818182 28.1060175,2.31218182 28.3592925,2.31218182 C28.7206425,2.31218182 29.0522925,2.367 29.3534175,2.47336364 C29.6545425,2.58054545 29.9333925,2.73436364 30.1883175,2.93481818 L29.6240175,3.74481818 C29.4053925,3.59509091 29.1875925,3.47890909 28.9780425,3.39136364 C28.7668425,3.30381818 28.5556425,3.26209091 28.3427925,3.26209091 C28.1340675,3.26209091 27.9773175,3.303 27.8708925,3.38318182 C27.7644675,3.46418182 27.7133175,3.56563636 27.7133175,3.68590909 L27.7133175,3.70063636 C27.7133175,3.78081818 27.7289925,3.84709091 27.7578675,3.90518182 C27.7892175,3.96572727 27.8436675,4.01563636 27.9245175,4.06390909 C28.0028925,4.10972727 28.1109675,4.15390909 28.2495675,4.19645455 C28.3898175,4.23654545 28.5638925,4.28563636 28.7734425,4.34127273 C29.0201175,4.40509091 29.2453425,4.48118182 29.4392175,4.56054545 C29.6322675,4.64236364 29.7964425,4.74136364 29.9300925,4.85427273 C30.0612675,4.96881818 30.1643925,5.09972727 30.2303925,5.25354545 C30.2996925,5.40654545 30.3351675,5.58981818 30.3351675,5.80581818 L30.3351675,5.81809091 C30.3351675,6.06190909 30.2881425,6.27463636 30.2006925,6.46363636 C30.1124175,6.65345455 29.9886675,6.80890909 29.8319175,6.93736364 C29.6726925,7.065 29.4837675,7.16072727 29.2634925,7.22945455 C29.0456925,7.29736364 28.8023175,7.33090909 28.5333675,7.33090909" id="Fill-12" fill="#FFFFFF"></path>
                    <polygon id="Fill-14" fill="#FFFFFF" points="41.8526625 3.37336364 40.3577625 3.37336364 40.3577625 2.38418182 44.4307875 2.38418182 44.4307875 3.37336364 42.9350625 3.37336364 42.9350625 7.25972727 41.8526625 7.25972727"></polygon>
                    <polygon id="Fill-16" fill="#FFFFFF" points="45.76176 2.38426364 49.46436 2.38426364 49.46436 3.33662727 46.828485 3.33662727 46.828485 4.32744545 49.14591 4.32744545 49.14591 5.28144545 46.828485 5.28144545 46.828485 6.30662727 49.496535 6.30662727 49.496535 7.25980909 45.76176 7.25980909"></polygon>
                    <polygon id="Fill-18" fill="#FFFFFF" points="55.2846525 2.38426364 53.6412525 4.76517273 55.3556025 7.25980909 54.0900525 7.25980909 52.9886775 5.58580909 51.8782275 7.25980909 50.6489775 7.25980909 52.3649775 4.78153636 50.7199275 2.38426364 51.9846525 2.38426364 53.0093025 3.96580909 54.0545775 2.38426364"></polygon>
                    <path d="M59.364525,5.21991818 L58.7103,3.6351 L58.056075,5.21991818 L59.364525,5.21991818 Z M58.22355,2.3481 L59.222625,2.3481 L61.3305,7.25964545 L60.199425,7.25964545 L59.74815,6.16655455 L57.66915,6.16655455 L57.221175,7.25964545 L56.117325,7.25964545 L58.22355,2.3481 Z" id="Fill-20" fill="#FFFFFF"></path>
                    <g id="Group-24" transform="translate(61.875000, 1.636364)">
                        <mask id="mask-4" fill="white">
                            <use xlink:href="#path-3"></use>
                        </mask>
                        <g id="Clip-23"></g>
                        <path d="M2.1897975,5.69454545 C1.8160725,5.69454545 1.4489475,5.62990909 1.0875975,5.50063636 C0.7270725,5.373 0.3995475,5.17745455 0.1033725,4.91481818 L0.7410975,4.15390909 C0.9671475,4.33472727 1.2006225,4.48036364 1.4340975,4.58754545 C1.6725225,4.69390909 1.9323975,4.74627273 2.2104225,4.74627273 C2.4364725,4.74627273 2.6105475,4.70454545 2.7359475,4.62436364 C2.8596975,4.54336364 2.9215725,4.43045455 2.9215725,4.28809091 L2.9215725,4.275 C2.9215725,4.203 2.9100225,4.14327273 2.8811475,4.08763636 C2.8572225,4.03527273 2.8068975,3.98372727 2.7359475,3.93872727 C2.6616975,3.89127273 2.5618725,3.84627273 2.4331725,3.79881818 C2.3044725,3.75381818 2.1353475,3.70227273 1.9323975,3.65318182 C1.6824225,3.591 1.4563725,3.52718182 1.2567225,3.45109091 C1.0537725,3.37745455 0.8846475,3.28581818 0.7410975,3.17454545 C0.6008475,3.06736364 0.4927725,2.92990909 0.4176975,2.76790909 C0.3401475,2.60427273 0.3013725,2.40218182 0.3013725,2.16163636 L0.3013725,2.14772727 C0.3013725,1.92436364 0.3417975,1.72390909 0.4267725,1.54554545 C0.5076225,1.36390909 0.6264225,1.21254545 0.7765725,1.08245455 C0.9300225,0.950727273 1.1098725,0.851727273 1.3194225,0.782181818 C1.5306225,0.711818182 1.7607975,0.675818182 2.0140725,0.675818182 C2.3770725,0.675818182 2.7054225,0.730636364 3.0081975,0.837 C3.3109725,0.944181818 3.5881725,1.098 3.8414475,1.29845455 L3.2787975,2.10845455 C3.0585225,1.95872727 2.8440225,1.84254545 2.6344725,1.755 C2.4199725,1.66745455 2.2104225,1.62572727 2.0000475,1.62572727 C1.7888475,1.62572727 1.6320975,1.66663636 1.5273225,1.74681818 C1.4208975,1.82781818 1.3697475,1.92927273 1.3697475,2.04954545 L1.3697475,2.06427273 C1.3697475,2.14445455 1.3837725,2.21072727 1.4134725,2.26881818 C1.4439975,2.32936364 1.5000975,2.37927273 1.5792975,2.42754545 C1.6576725,2.47336364 1.7690475,2.51754545 1.9059975,2.56009091 C2.0445975,2.60018182 2.2186725,2.64927273 2.4282225,2.70490909 C2.6781975,2.76872727 2.8984725,2.84481818 3.0939975,2.92418182 C3.2870475,3.006 3.4495725,3.105 3.5865225,3.21790909 C3.7193475,3.33245455 3.8191725,3.46336364 3.8868225,3.61718182 C3.9561225,3.77018182 3.9899475,3.95345455 3.9899475,4.16945455 L3.9899475,4.18172727 C3.9899475,4.42554545 3.9445725,4.63827273 3.8546475,4.82727273 C3.7671975,5.01709091 3.6450975,5.17254545 3.4850475,5.301 C3.3274725,5.42863636 3.1385475,5.52436364 2.9199225,5.59309091 C2.7004725,5.661 2.4570975,5.69454545 2.1897975,5.69454545" id="Fill-22" fill="#FFFFFF" mask="url(#mask-4)"></path>
                    </g>
                    <g id="Group-27" transform="translate(32.175000, 0.000000)">
                        <mask id="mask-6" fill="white">
                            <use xlink:href="#path-5"></use>
                        </mask>
                        <g id="Clip-26"></g>
                        <path d="M6.730515,4.07413636 L6.68514,4.1085 L6.661215,4.09622727 L6.70659,4.05122727 L6.730515,4.07413636 Z M6.522615,4.07413636 L6.456615,4.09622727 L6.456615,4.07413636 L6.511065,4.05122727 L6.522615,4.07413636 Z M6.40959,4.17640909 L6.441765,4.17640909 L6.441765,4.1085 L6.40959,4.1085 L6.40959,4.17640909 Z M6.21324,4.24513636 L6.190965,4.24513636 L6.167865,4.29177273 L6.190965,4.29177273 L6.21324,4.24513636 Z M6.27099,3.10295455 L6.13239,3.21995455 L6.121665,3.19459091 L6.247065,3.09231818 L6.27099,3.10295455 Z M6.07464,4.5405 L6.06309,4.53068182 L6.02019,4.56422727 L6.040815,4.58795455 L6.07464,4.5405 Z M6.040815,4.11831818 L5.971515,4.17640909 L5.94924,4.15431818 L6.029265,4.09622727 L6.040815,4.11831818 Z M6.029265,4.82686364 L5.94924,4.90622727 L5.93769,4.88413636 L6.00534,4.81540909 L6.029265,4.82686364 Z M5.93769,4.62068182 C5.92944,4.6125 5.922015,4.59859091 5.915415,4.57568182 C5.86014,4.62886364 5.826315,4.67222727 5.81229,4.71231818 C5.86344,4.65177273 5.907165,4.62068182 5.93769,4.62068182 L5.93769,4.62068182 Z M5.92614,3.58077273 L5.776815,3.67486364 L5.765265,3.6495 L5.915415,3.56031818 L5.92614,3.58077273 Z M5.753715,3.67486364 L5.72979,3.71822727 L5.707515,3.70840909 L5.72979,3.66259091 L5.753715,3.67486364 Z M5.67204,4.53068182 L5.65059,4.50777273 L5.59119,4.56422727 L5.616765,4.58795455 L5.67204,4.53068182 Z M5.57964,3.74522727 L5.570565,3.78613636 L5.53509,3.77713636 L5.557365,3.73131818 L5.57964,3.74522727 Z M5.45424,7.23313636 C5.37834,7.23313636 5.33874,7.2405 5.33874,7.25604545 L5.39649,7.43931818 C5.412165,7.40004545 5.431965,7.33295455 5.45424,7.23313636 L5.45424,7.23313636 Z M5.38494,6.82322727 C5.362665,6.77822727 5.31234,6.72013636 5.23644,6.65304545 C5.24964,6.65304545 5.26779,6.64895455 5.286765,6.64159091 C5.30739,6.63340909 5.32059,6.63095455 5.32554,6.63095455 C5.32554,6.6735 5.346165,6.74059091 5.38494,6.82322727 L5.38494,6.82322727 Z M5.280165,7.38204545 C5.286765,7.34440909 5.286765,7.29368182 5.280165,7.23313636 C5.26614,7.22740909 5.224065,7.18813636 5.154765,7.12186364 C5.200965,7.23313636 5.24304,7.32231818 5.280165,7.38204545 L5.280165,7.38204545 Z M4.946865,7.84022727 L4.97079,7.84022727 L4.97079,7.76168182 L4.946865,7.76168182 L4.946865,7.84022727 Z M4.960065,4.84977273 L4.936965,4.82686364 L4.890765,4.87431818 L4.91304,4.88413636 L4.960065,4.84977273 Z M4.946865,7.7265 L4.946865,7.62259091 C4.90149,7.6005 4.869315,7.58659091 4.85694,7.58659091 C4.85694,7.59640909 4.85034,7.60131818 4.84539,7.60622727 C4.83714,7.6095 4.83219,7.6185 4.83219,7.63322727 C4.84704,7.64877273 4.869315,7.69213636 4.90149,7.76168182 L4.946865,7.7265 Z M4.76289,8.0325 L4.71834,8.07995455 C4.68534,8.0415 4.664715,7.98586364 4.64904,7.90895455 C4.669665,7.9245 4.69689,7.94413636 4.727415,7.97604545 C4.70514,7.9515 4.69359,7.95968182 4.69359,7.98831818 C4.69359,8.00140909 4.71834,8.01859091 4.76289,8.0325 L4.76289,8.0325 Z M4.69359,4.63295455 L4.684515,4.61004545 L4.63749,4.65504545 L4.659765,4.6665 L4.69359,4.63295455 Z M4.408965,7.81486364 L4.380915,7.82631818 L4.21014,7.62259091 L4.23489,7.6005 L4.408965,7.81486364 Z M4.16559,1.50668182 C4.15734,1.50668182 4.14084,1.51895455 4.118565,1.53940909 L4.14084,1.61959091 C4.16559,1.56722727 4.173015,1.52795455 4.16559,1.50668182 L4.16559,1.50668182 Z M3.88839,2.32731818 C3.88839,2.30604545 3.87354,2.28477273 3.841365,2.27004545 C3.841365,2.30768182 3.828165,2.33468182 3.79764,2.35268182 C3.79764,2.45086364 3.781965,2.53268182 3.74979,2.59895455 C3.841365,2.4705 3.88839,2.38213636 3.88839,2.32731818 L3.88839,2.32731818 Z M3.73824,3.08004545 L3.715965,3.06859091 L3.692865,3.11440909 L3.72504,3.12586364 L3.73824,3.08004545 Z M3.646665,2.53268182 C3.59964,2.57113636 3.559215,2.61286364 3.52044,2.65786364 C3.52044,2.72822727 3.45114,2.82968182 3.31254,2.96631818 C3.26634,3.02604545 3.19704,3.1095 3.10629,3.21995455 L3.12939,3.29768182 C3.13764,3.28377273 3.151665,3.26822727 3.17394,3.25022727 C3.18219,3.24368182 3.19374,3.24368182 3.209415,3.25022727 L3.12939,3.34104545 L3.17394,3.37704545 C3.20529,3.3255 3.24819,3.25022727 3.300165,3.16104545 C3.232515,3.17495455 3.20199,3.1815 3.209415,3.1815 C3.308415,3.06040909 3.443715,2.89513636 3.61284,2.67995455 C3.620265,2.6415 3.630165,2.59322727 3.646665,2.53268182 L3.646665,2.53268182 Z M2.99079,2.79531818 C2.96769,2.79531818 2.937165,2.79286364 2.89839,2.78304545 C2.92974,2.73722727 2.945415,2.68322727 2.945415,2.62513636 C2.90664,2.69959091 2.887665,2.73395455 2.887665,2.73395455 C2.887665,2.77895455 2.90334,2.83295455 2.932215,2.88695455 C2.97099,2.84931818 2.99079,2.81904545 2.99079,2.79531818 L2.99079,2.79531818 Z M2.955315,2.5785 L2.945415,2.5695 L2.887665,2.62513636 L2.89839,2.63495455 L2.955315,2.5785 Z M2.945415,2.15713636 L2.89839,2.20213636 L2.887665,2.17922727 L2.92314,2.14486364 L2.945415,2.15713636 Z M3.024615,2.39522727 C3.024615,2.36659091 3.016365,2.35268182 3.003165,2.35268182 C2.955315,2.40259091 2.90334,2.47868182 2.84064,2.5785 C2.965215,2.48768182 3.024615,2.42468182 3.024615,2.39522727 L3.024615,2.39522727 Z M2.887665,2.58995455 C2.83404,2.58995455 2.815065,2.59322727 2.83074,2.59895455 C2.823315,2.61531818 2.818365,2.63168182 2.818365,2.64722727 C2.83404,2.63904545 2.85549,2.62186364 2.887665,2.58995455 L2.887665,2.58995455 Z M2.84064,2.44186364 L2.818365,2.43040909 L2.795265,2.47704545 L2.818365,2.48768182 L2.84064,2.44186364 Z M2.795265,7.44995455 C2.78784,7.45895455 2.758965,7.46304545 2.70369,7.46304545 C2.70369,7.48022727 2.69214,7.49659091 2.669865,7.5195 C2.69214,7.5195 2.71029,7.5285 2.725965,7.54240909 C2.77299,7.51377273 2.795265,7.48186364 2.795265,7.44995455 L2.795265,7.44995455 Z M3.06174,6.31104545 L3.003165,6.25377273 C2.90994,6.32822727 2.78784,6.43622727 2.63604,6.57286364 C2.664915,6.55731818 2.70534,6.53604545 2.76144,6.50413636 C2.78289,6.52622727 2.79114,6.53768182 2.78289,6.53768182 C2.85219,6.48613636 2.945415,6.40922727 3.06174,6.31104545 L3.06174,6.31104545 Z M3.19704,1.83804545 C3.19704,1.82331818 3.19044,1.7955 3.17394,1.75622727 C3.159915,1.72022727 3.151665,1.69322727 3.151665,1.67768182 C3.11289,1.67768182 3.087315,1.61959091 3.070815,1.50668182 C3.04029,1.46086364 2.99904,1.42486364 2.945415,1.40522727 C2.961915,1.38722727 2.945415,1.36431818 2.89839,1.33568182 C2.869515,1.36431818 2.86044,1.37904545 2.877765,1.37904545 C2.869515,1.37004545 2.84559,1.36759091 2.806815,1.36759091 C2.62944,1.36759091 2.541165,1.4715 2.541165,1.67768182 C2.541165,1.74477273 2.56014,1.79877273 2.598915,1.83804545 C2.676465,1.81431818 2.72349,1.80695455 2.737515,1.81431818 C2.69874,1.82331818 2.64594,1.83804545 2.57499,1.85931818 L2.57499,1.98613636 C2.57499,2.02213636 2.602215,2.10886364 2.65254,2.24304545 C2.70204,2.37559091 2.737515,2.45740909 2.76144,2.48768182 C2.85219,2.38213636 2.97924,2.20868182 3.141765,1.97222727 L3.19704,1.83804545 Z M2.63604,6.58513636 C2.597265,6.60804545 2.549415,6.63340909 2.49909,6.6645 L2.51889,6.71031818 C2.532915,6.68168182 2.57499,6.63668182 2.63604,6.58513636 L2.63604,6.58513636 Z M2.38194,7.70277273 L2.35884,7.69213636 L2.323365,7.7265 L2.336565,7.74940909 L2.38194,7.70277273 Z M2.531265,0.172227273 C2.270565,0.2025 2.17074,0.216409091 2.23014,0.216409091 C2.255715,0.216409091 2.28954,0.226227273 2.336565,0.249954545 C2.336565,0.241772727 2.339865,0.231954545 2.348115,0.216409091 C2.35389,0.223772727 2.35884,0.241772727 2.35884,0.261409091 L2.404215,0.261409091 C2.44299,0.245863636 2.485065,0.216409091 2.531265,0.172227273 L2.531265,0.172227273 Z M1.90014,5.95677273 L1.853115,5.96659091 L1.853115,5.94531818 L1.88694,5.92240909 L1.90014,5.95677273 Z M1.54374,6.12613636 L1.518165,6.11631818 L1.46124,6.19568182 L1.48599,6.20795455 L1.54374,6.12613636 Z M2.99079,6.23086364 C2.76969,5.89622727 2.615415,5.64422727 2.531265,5.47813636 C2.461965,5.45440909 2.37369,5.5395 2.267265,5.72768182 C2.24334,5.72768182 2.21199,5.73586364 2.17569,5.74486364 C2.135265,5.75877273 2.10639,5.76204545 2.08164,5.76204545 C2.067615,5.76204545 2.059365,5.75877273 2.059365,5.74977273 L2.03709,5.74977273 C2.02884,5.7645 2.00904,5.78822727 1.978515,5.81931818 L1.94469,5.78577273 C1.73679,6.02059091 1.59159,6.29222727 1.506615,6.59413636 C1.46124,6.6645 1.437315,6.72422727 1.437315,6.77822727 C1.437315,6.82322727 1.45629,6.84940909 1.495065,6.85677273 L1.933965,6.06886364 C1.986765,5.97068182 2.039565,5.91913636 2.09319,5.91095455 C2.10309,5.88640909 2.123715,5.85940909 2.16249,5.81931818 C2.17074,5.83404545 2.17074,5.84222727 2.16249,5.84222727 C2.140215,5.8725 2.09319,5.94940909 2.02554,6.06886364 C2.039565,6.08768182 2.047815,6.09831818 2.047815,6.10486364 C1.88694,6.40186364 1.75329,6.6735 1.645215,6.92713636 C1.68564,6.94104545 1.73514,6.94759091 1.795365,6.94759091 C1.80114,6.94759091 1.843215,6.91977273 1.920765,6.85677273 C1.999965,6.79622727 2.039565,6.76595455 2.047815,6.76595455 L2.10639,6.76595455 C2.10639,6.7815 2.09979,6.79622727 2.08824,6.81259091 C2.07504,6.82895455 2.070915,6.83877273 2.070915,6.84777273 C2.22354,6.74059091 2.531265,6.53604545 2.99079,6.23086364 L2.99079,6.23086364 Z M1.287165,5.01095455 L1.26489,4.99786364 L1.231065,5.07886364 L1.25334,5.08786364 L1.287165,5.01095455 Z M1.219515,4.64440909 L1.219515,4.58795455 C1.173315,4.61740909 1.148565,4.6665 1.148565,4.73604545 C1.19559,4.68859091 1.219515,4.65995455 1.219515,4.64440909 L1.219515,4.64440909 Z M1.161765,5.30468182 L1.161765,5.2245 C1.12299,5.26377273 1.105665,5.30059091 1.105665,5.33904545 C1.12794,5.31859091 1.145265,5.30468182 1.161765,5.30468182 L1.161765,5.30468182 Z M1.55364,5.43231818 C1.53054,5.43231818 1.518165,5.41922727 1.518165,5.39713636 C1.47279,5.41922727 1.45629,5.43968182 1.47279,5.45440909 C1.427415,5.50922727 1.302015,5.6925 1.094115,6.01404545 C1.12299,6.01404545 1.13289,6.02059091 1.12794,6.03613636 C1.105665,6.08113636 1.06029,6.20304545 0.98934,6.40186364 C1.011615,6.37895455 1.04379,6.36586364 1.080915,6.36586364 C0.97449,6.47304545 0.91674,6.53768182 0.90849,6.56059091 C0.90849,6.60804545 0.92499,6.64895455 0.953865,6.68740909 C1.009965,6.58022727 1.080915,6.42968182 1.173315,6.23086364 C1.173315,6.18422727 1.224465,6.06886364 1.32264,5.88640909 L1.33419,5.83159091 C1.381215,5.78577273 1.40349,5.74322727 1.40349,5.70559091 L1.39194,5.63768182 C1.437315,5.58286364 1.490115,5.51822727 1.55364,5.43231818 L1.55364,5.43231818 Z M1.356465,5.2695 L1.32264,5.20322727 C1.25334,5.31122727 1.13949,5.47813636 0.97614,5.70559091 C0.72699,6.18422727 0.597465,6.46568182 0.597465,6.54995455 C0.597465,6.56304545 0.602415,6.58840909 0.609015,6.61704545 C0.617265,6.64895455 0.620565,6.66695455 0.620565,6.66695455 C0.76659,6.35522727 0.90849,6.08113636 1.04544,5.8545 L1.04544,5.80622727 C1.039665,5.78577273 1.05039,5.7735 1.080915,5.7735 L1.080915,5.74977273 C1.07349,5.74322727 1.06689,5.73831818 1.06029,5.73831818 C1.11309,5.72440909 1.145265,5.66713636 1.161765,5.56731818 L1.161765,5.54604545 C1.161765,5.52313636 1.17909,5.49695455 1.21209,5.47159091 C1.247565,5.44540909 1.26984,5.4225 1.27644,5.40940909 C1.306965,5.33904545 1.33419,5.29404545 1.356465,5.2695 L1.356465,5.2695 Z M0.529815,7.21186364 L0.529815,7.15295455 L0.485265,7.18813636 C0.490215,7.20368182 0.50754,7.21186364 0.529815,7.21186364 L0.529815,7.21186364 Z M0.92004,5.62540909 C0.873015,5.70968182 0.760815,5.91913636 0.57684,6.25377273 C0.51414,6.36586364 0.478665,6.44031818 0.470415,6.46895455 L0.470415,6.56059091 C0.58674,6.35522727 0.736065,6.04268182 0.92004,5.62540909 L0.92004,5.62540909 Z M0.529815,7.10795455 C0.51414,7.00240909 0.485265,6.8535 0.43824,6.6645 C0.43824,6.67268182 0.43494,6.68740909 0.42504,6.71522727 C0.419265,6.74222727 0.414315,6.76104545 0.414315,6.77822727 C0.414315,6.82322727 0.43824,6.88131818 0.485265,6.94759091 C0.465465,6.94759091 0.45474,6.94595455 0.44814,6.93695455 L0.414315,6.93695455 L0.50754,7.12186364 L0.529815,7.10795455 Z M0.539715,5.8545 C0.547965,5.87577273 0.536415,5.91340909 0.50754,5.96331818 C0.477015,6.01404545 0.457215,6.04268182 0.457215,6.0615 C0.457215,6.08113636 0.465465,6.09995455 0.485265,6.11631818 L0.414315,6.11631818 C0.44484,6.05577273 0.485265,5.96659091 0.539715,5.8545 L0.539715,5.8545 Z M0.42504,6.13922727 L0.37884,6.21859091 L0.35739,6.20795455 L0.391215,6.13922727 L0.42504,6.13922727 Z M6.605115,3.82213636 C6.64224,3.82213636 6.64224,3.83031818 6.591915,3.84504545 L6.583665,3.91459091 C6.520965,3.96531818 6.43599,4.05122727 6.329565,4.16495455 C6.35019,4.18868182 6.36339,4.21486364 6.36339,4.24513636 L6.329565,4.20913636 C6.304815,4.24022727 6.29739,4.26804545 6.304815,4.29177273 C6.28089,4.28440909 6.253665,4.28768182 6.21324,4.30159091 C6.21324,4.3245 6.22974,4.33595455 6.260265,4.33595455 C6.22149,4.38913636 6.19839,4.43822727 6.190965,4.48568182 C6.190965,4.46359091 6.182715,4.44231818 6.167865,4.42677273 L6.110115,4.4955 C6.110115,4.51186364 6.121665,4.51759091 6.14394,4.51759091 C6.115065,4.5495 5.99544,4.67059091 5.78754,4.88413636 L5.78754,4.90622727 C5.755365,4.98395455 5.715765,5.04040909 5.66049,5.07886364 C5.65389,5.08704545 5.65389,5.10013636 5.66049,5.1255 C5.73804,5.07886364 5.771865,5.05268182 5.765265,5.05268182 C5.771865,5.05268182 5.776815,5.06004545 5.776815,5.06740909 L5.79909,5.06740909 C5.783415,5.06740909 5.829615,5.04040909 5.93769,4.98559091 L6.57129,4.42677273 C6.438465,4.56422727 6.238815,4.76386364 5.971515,5.01995455 C5.971515,5.02895455 5.979765,5.04040909 5.99544,5.05268182 C5.971515,5.08704545 5.94099,5.1255 5.902215,5.16968182 C5.895615,5.16968182 5.87994,5.15577273 5.85684,5.13531818 C5.851065,5.14186364 5.819715,5.16968182 5.765265,5.2155 C5.765265,5.2155 5.770215,5.23022727 5.776815,5.23840909 C5.79909,5.22040909 5.819715,5.2155 5.832915,5.2155 C5.79579,5.26868182 5.54334,5.55504545 5.073915,6.06886364 L5.04009,6.06886364 C5.04009,6.07786364 5.02854,6.10322727 5.004615,6.14577273 C4.98234,6.18504545 4.97079,6.21613636 4.97079,6.23086364 C4.97079,6.26113636 4.999665,6.30695455 5.06319,6.36586364 C5.12259,6.33640909 5.158065,6.25868182 5.166315,6.12613636 L5.166315,6.27586364 C5.19024,6.29222727 5.224065,6.2955 5.270265,6.28813636 C5.270265,6.31104545 5.278515,6.3405 5.299965,6.37895455 C5.31729,6.41659091 5.32554,6.44359091 5.32554,6.45831818 C5.32554,6.56304545 5.270265,6.61377273 5.154765,6.60804545 L5.224065,6.60804545 L5.224065,6.68740909 C5.207565,6.68740909 5.19024,6.6825 5.166315,6.6735 C5.143215,6.66695455 5.12754,6.6645 5.12094,6.6645 C5.11269,6.68740909 5.10939,6.74059091 5.10939,6.82322727 C5.10939,6.93040909 5.13249,6.98277273 5.17869,6.98277273 C5.19189,6.98277273 5.202615,6.98031818 5.207565,6.9705 C5.209215,6.96395455 5.220765,6.95904545 5.23644,6.95904545 C5.23644,6.95904545 5.271915,6.9705 5.32554,6.99259091 C5.37999,7.01877273 5.417115,7.02777273 5.431965,7.02777273 L5.52189,6.94759091 C5.554065,6.94759091 5.578815,6.95904545 5.59119,6.98277273 C5.58459,7.0155 5.57964,7.05722727 5.57964,7.10795455 C5.59449,7.10795455 5.61099,7.12186364 5.625015,7.14313636 L5.625015,7.23313636 L5.557365,7.7355 C5.39649,7.98831818 5.25459,8.1135 5.13249,8.1135 C5.11599,8.1135 5.097015,8.10777273 5.073915,8.10040909 C5.05164,8.09386364 5.03349,8.09059091 5.016165,8.09059091 L5.016165,8.00059091 C5.06319,7.99240909 5.12754,7.97604545 5.212515,7.9515 C5.24964,7.93840909 5.303265,7.88604545 5.365965,7.80177273 C5.433615,7.71177273 5.46414,7.64877273 5.46414,7.61113636 C5.46414,7.5735 5.40309,7.51540909 5.280165,7.43931818 C5.296665,7.42540909 5.30409,7.46468182 5.30409,7.5645 C5.30409,7.62422727 5.26284,7.71422727 5.17869,7.82631818 C5.17869,7.80504545 5.17044,7.78786364 5.166315,7.77231818 C5.151465,7.78786364 5.143215,7.79686364 5.143215,7.79686364 C5.136615,7.78213636 5.097015,7.76822727 5.02854,7.76168182 C4.98234,7.76168182 4.960065,7.81486364 4.960065,7.93104545 C4.936965,7.93104545 4.92129,7.9245 4.91304,7.90895455 C4.884165,7.94413636 4.84044,7.9605 4.78764,7.9515 L4.78764,7.94168182 C4.795065,7.94986364 4.798365,7.94168182 4.798365,7.91877273 C4.798365,7.86477273 4.77444,7.84022727 4.727415,7.84022727 C4.71504,7.84022727 4.70514,7.84104545 4.70514,7.84922727 C4.70514,7.85659091 4.69689,7.86068182 4.684515,7.86068182 C4.676265,7.86068182 4.656465,7.84104545 4.63089,7.80177273 C4.605315,7.75677273 4.588815,7.7355 4.57974,7.7355 C4.56324,7.7355 4.55664,7.74940909 4.55664,7.77231818 C4.531065,7.76495455 4.517865,7.76168182 4.51209,7.76168182 L4.55664,7.71422727 C4.55664,7.71422727 4.547565,7.69459091 4.531065,7.68068182 C4.48074,7.64059091 4.399065,7.59640909 4.29099,7.54240909 L4.08309,7.54240909 C4.06989,7.54240909 4.057515,7.55059091 4.050915,7.5645 C4.044315,7.5825 4.03029,7.58659091 4.01544,7.58659091 C3.99894,7.58659091 3.976665,7.58413636 3.94614,7.57677273 L3.87684,7.57677273 C3.87024,7.55304545 3.841365,7.51377273 3.79764,7.44995455 L3.79764,7.38204545 C3.781965,7.34440909 3.74979,7.29859091 3.702765,7.24540909 C3.72504,7.2225 3.73494,7.20368182 3.72504,7.18813636 L2.669865,7.89668182 C2.684715,7.88031818 2.69214,7.86804545 2.69214,7.86804545 C2.684715,7.84677273 2.669865,7.84022727 2.64594,7.84022727 C2.598915,7.84022727 2.549415,7.85659091 2.49909,7.89668182 C2.549415,7.83613636 2.62944,7.77395455 2.737515,7.71422727 C2.737515,7.71422727 2.734215,7.69786364 2.725965,7.69213636 C2.664915,7.71422727 2.57499,7.75268182 2.461965,7.80504545 C2.50074,7.78213636 2.549415,7.75268182 2.612115,7.71422727 C2.620365,7.69786364 2.62779,7.66677273 2.63604,7.62259091 C2.65089,7.6005 2.676465,7.5735 2.71524,7.54240909 C2.69874,7.54240909 2.673165,7.53177273 2.63604,7.50886364 C2.603865,7.57677273 2.541165,7.6185 2.452065,7.63322727 C2.43639,7.64877273 2.42319,7.67495455 2.41659,7.71422727 C2.37039,7.74368182 2.318415,7.76168182 2.267265,7.76168182 C2.267265,7.82631818 2.24334,7.86068182 2.197965,7.86068182 C2.181465,7.86068182 2.17074,7.85659091 2.16249,7.84922727 L2.15259,7.84022727 C2.135265,7.86804545 2.113815,7.91877273 2.08164,7.98831818 C2.08989,7.99486364 2.113815,8.00059091 2.15259,8.00059091 C2.28954,8.00059091 2.37039,7.96786364 2.394315,7.90895455 C2.37864,7.9245 2.35389,7.94986364 2.323365,7.98831818 C2.339865,7.99486364 2.387715,8.00059091 2.471865,8.00059091 C2.452065,8.02022727 2.412465,8.05295455 2.35884,8.09059091 C2.22024,8.15113636 2.09814,8.18222727 1.990065,8.18222727 C1.93644,8.15113636 1.67739,8.02759091 1.20879,7.81486364 C1.18569,7.80177273 1.14444,7.77804545 1.080915,7.74940909 C0.91179,7.66431818 0.825165,7.61604545 0.816915,7.6005 C0.693165,7.53177273 0.625515,7.44995455 0.609015,7.36077273 C0.602415,7.34440909 0.59169,7.32968182 0.57684,7.31331818 C0.559515,7.32968182 0.56199,7.36077273 0.58674,7.40495455 C0.57024,7.40495455 0.551265,7.40004545 0.52239,7.38613636 C0.49599,7.37713636 0.477015,7.36895455 0.457215,7.36895455 L0.43824,7.39268182 C0.485265,7.43277273 0.50259,7.46877273 0.49434,7.50886364 C0.531465,7.53177273 0.57849,7.5735 0.63129,7.63322727 L0.63129,7.69213636 C0.63129,7.70686364 0.620565,7.71422727 0.597465,7.71422727 C0.58179,7.71422727 0.56694,7.70277273 0.551265,7.68068182 L0.50754,7.64468182 C0.45309,7.64468182 0.37884,7.6185 0.28644,7.5645 C0.22539,7.50313636 0.15774,7.27977273 0.07854,6.89195455 L0.056265,6.82322727 C0.056265,6.80195455 0.064515,6.76595455 0.076065,6.72013636 C0.08679,6.6735 0.09174,6.63831818 0.09174,6.61213636 C0.09174,6.58595455 0.09999,6.54259091 0.114015,6.48040909 L0.10494,6.48040909 C0.09669,6.48040909 0.09174,6.47304545 0.09174,6.45831818 C0.114015,6.40513636 0.196515,6.27586364 0.335115,6.06886364 C0.325215,6.1065 0.321915,6.16213636 0.321915,6.23086364 C0.328515,6.23822727 0.341715,6.25377273 0.35739,6.27586364 C0.36399,6.32822727 0.36069,6.39122727 0.345015,6.45831818 C0.36069,6.41331818 0.419265,6.29222727 0.51744,6.09422727 L0.689865,5.74977273 L0.678315,5.72768182 C0.65604,5.74977273 0.64449,5.7645 0.64449,5.7735 L0.64449,5.71704545 C0.620565,5.73259091 0.59499,5.7645 0.56199,5.81931818 C0.625515,5.71459091 0.670065,5.62540909 0.70059,5.55913636 C0.70059,5.59431818 0.70554,5.61968182 0.71214,5.62540909 C0.79794,5.53377273 0.84249,5.44377273 0.85074,5.35213636 C0.803715,5.38240909 0.76989,5.41922727 0.749265,5.46504545 C0.825165,5.3145 0.939015,5.08786364 1.094115,4.79413636 C1.100715,4.7835 1.100715,4.77695455 1.094115,4.76877273 L0.98934,4.83913636 C0.99594,4.8465 1.00419,4.84977273 1.011615,4.84977273 C1.028115,4.84977273 1.039665,4.8465 1.04544,4.83913636 C0.947265,4.91522727 0.825165,5.11404545 0.678315,5.44377273 C0.63129,5.55013636 0.531465,5.6925 0.37884,5.87577273 C0.44154,5.7015 0.597465,5.37831818 0.85074,4.90622727 C0.889515,4.83913636 0.953865,4.71231818 1.04544,4.53068182 C1.077615,4.4685 1.173315,4.3245 1.33419,4.09622727 C1.45629,3.92113636 1.518165,3.82459091 1.518165,3.8115 C1.518165,3.77304545 1.48764,3.72640909 1.427415,3.67486364 C1.305315,3.35413636 1.20879,3.0735 1.13949,2.82968182 C1.145265,2.7765 1.145265,2.69059091 1.13949,2.5785 C1.12299,2.52613636 1.105665,2.45168182 1.080915,2.36004545 C1.04379,2.03522727 1.023165,1.82659091 1.023165,1.73495455 C1.023165,1.27104545 1.13124,0.885681818 1.34574,0.582954545 C1.354815,0.582954545 1.369665,0.5895 1.39194,0.603409091 C1.369665,0.632863636 1.33419,0.6885 1.287165,0.765409091 L1.311915,0.797318182 C1.34244,0.744954545 1.39854,0.658227273 1.48599,0.5355 L1.427415,0.5355 C1.443915,0.483954545 1.48104,0.417681818 1.54374,0.341590909 C1.795365,0.183681818 1.95624,0.101863636 2.02554,0.101863636 L2.059365,0.137045455 C2.07339,0.120681818 2.10309,0.101863636 2.140215,0.0805909091 C2.23014,0.0650454545 2.37039,0.0364090909 2.552715,0.00040909091 C2.65254,0.0364090909 2.76969,0.110045455 2.89839,0.216409091 C3.021315,0.261409091 3.10794,0.284318182 3.164865,0.284318182 C3.17889,0.284318182 3.20199,0.277772727 3.232515,0.267954545 C3.26469,0.2565 3.285315,0.249954545 3.300165,0.249954545 C3.34059,0.249954545 3.39834,0.289227273 3.47424,0.362863636 C3.58974,0.402136364 3.74979,0.461863636 3.95934,0.546136364 C3.996465,0.560863636 4.02039,0.587045455 4.02534,0.621409091 C4.034415,0.655772727 4.044315,0.677045455 4.050915,0.683590909 C4.00389,0.668045455 3.95934,0.668045455 3.912315,0.683590909 C3.93459,0.698318182 3.976665,0.726954545 4.039365,0.765409091 C4.060815,0.765409091 4.07319,0.744954545 4.07319,0.708954545 C4.09629,0.737590909 4.130115,0.797318182 4.176315,0.888954545 L4.07319,0.878318182 C4.064115,0.963409091 4.111965,1.06568182 4.21674,1.1925 C4.319865,1.31686364 4.37184,1.39213636 4.37184,1.41259091 C4.37184,1.48868182 4.338015,1.62531818 4.268715,1.81431818 C4.262115,1.88140909 4.239015,1.97222727 4.199415,2.08840909 C4.191165,2.11213636 4.199415,2.1195 4.22169,2.1195 C4.199415,2.15304545 4.176315,2.20213636 4.15404,2.27004545 C4.14579,2.30768182 4.14084,2.35513636 4.14084,2.41895455 C4.15734,2.41159091 4.16889,2.40831818 4.176315,2.40831818 L4.130115,2.46313636 C4.15404,2.50159091 4.064115,2.66277273 3.86364,2.95568182 C3.849615,2.95568182 3.828165,2.97040909 3.79764,2.99986364 C3.79764,3.02359091 3.781965,3.04568182 3.74979,3.06859091 L3.762165,3.08004545 C3.74814,3.12586364 3.72339,3.14140909 3.692865,3.12586364 L3.65739,3.17168182 C3.65739,3.18640909 3.66234,3.19459091 3.67059,3.19459091 C3.640065,3.21995455 3.60789,3.24368182 3.579015,3.27313636 C3.516315,3.31977273 3.493215,3.36231818 3.508065,3.40077273 C3.516315,3.39259091 3.52704,3.38113636 3.53694,3.36722727 C3.54849,3.34922727 3.559215,3.34022727 3.565815,3.33286364 C3.565815,3.40077273 3.54684,3.43513636 3.508065,3.43513636 C3.493215,3.43513636 3.489915,3.42613636 3.498165,3.41222727 C3.506415,3.40486364 3.506415,3.40077273 3.498165,3.40077273 C3.489915,3.41631818 3.432165,3.47031818 3.32409,3.56031818 C3.31584,3.5685 3.31584,3.58077273 3.32409,3.60613636 C3.34059,3.60040909 3.361215,3.58077273 3.38184,3.56031818 C3.34389,3.60040909 3.32409,3.63313636 3.32409,3.66259091 C3.32409,3.73131818 3.349665,3.80168182 3.40494,3.86795455 L3.38184,3.8565 C3.366165,3.86386364 3.348015,3.87940909 3.32409,3.90231818 C3.348015,3.94895455 3.38514,4.01277273 3.438765,4.09622727 C3.555915,4.22713636 3.61284,4.30977273 3.61284,4.34740909 C3.61284,4.46359091 3.68544,4.56422727 3.831465,4.65504545 C3.81579,4.68695455 3.87684,4.79904545 4.01544,4.98559091 L4.060815,4.95286364 C4.044315,4.97577273 4.044315,4.99131818 4.050915,4.99786364 L5.39649,3.73131818 C5.39649,3.74522727 5.408865,3.75340909 5.431965,3.75340909 C5.417115,3.75340909 5.46909,3.68795455 5.59119,3.56031818 C5.616765,3.54395455 5.646465,3.52922727 5.682765,3.51368182 C5.691015,3.49159091 5.704215,3.46459091 5.71989,3.43513636 C5.81229,3.34922727 6.01359,3.1995 6.329565,2.97777273 L6.329565,3.05795455 L6.28089,3.09231818 C6.28089,3.06859091 6.27924,3.0555 6.27099,3.04568182 C6.01194,3.23059091 5.72319,3.50304545 5.408865,3.86795455 C5.354415,3.93586364 5.24304,4.06677273 5.073915,4.25577273 C5.080515,4.26477273 5.09949,4.25577273 5.13249,4.23286364 C5.06319,4.31631818 4.999665,4.37440909 4.946865,4.40386364 C4.97904,4.38340909 5.014515,4.34086364 5.05164,4.27704545 C5.05989,4.27704545 5.05494,4.26968182 5.04009,4.25577273 L4.727415,4.57568182 L4.77444,4.62068182 L4.669665,4.72377273 C4.669665,4.73195455 4.676265,4.7385 4.684515,4.7475 C4.875915,4.55686364 5.12754,4.3245 5.44269,4.05122727 C5.60274,3.91459091 5.95749,3.6495 6.50199,3.2625 C6.49374,3.27231818 6.47889,3.29277273 6.461565,3.33286364 C6.441765,3.3705 6.42444,3.39668182 6.40959,3.41222727 C6.01194,3.80822727 5.554065,4.2525 5.04009,4.7475 C5.03349,4.7475 5.03349,4.75486364 5.04009,4.76877273 C5.05494,4.76386364 5.143215,4.70086364 5.30409,4.58795455 C5.271915,4.63295455 5.220765,4.69677273 5.143215,4.78104545 C5.136615,4.8105 5.136615,4.82686364 5.143215,4.82686364 C5.12754,4.82686364 5.10939,4.83913636 5.087115,4.86040909 C5.092065,4.86777273 5.10444,4.87431818 5.12094,4.87431818 C5.229015,4.79904545 5.493015,4.57568182 5.915415,4.20913636 C5.86839,4.27704545 5.81394,4.3425 5.753715,4.40386364 L5.695965,4.46359091 L5.707515,4.48568182 C5.87664,4.34740909 6.049065,4.21895455 6.22644,4.09622727 L6.07464,4.24513636 L6.13239,4.25577273 L6.14394,4.20913636 C6.29739,4.07413636 6.451665,3.94322727 6.605115,3.82213636 L6.605115,3.82213636 Z" id="Fill-25" fill="#FFFFFF" mask="url(#mask-6)"></path>
                    </g>
                </g>
            </g>
        </g>
    </g>
</svg>