<svg id="Capa_1" data-name="Capa 1" xmlns="http://www.w3.org/2000/svg" viewBox="0 0 52 41"><defs><style>.cls-1{fill:#fff;}</style></defs><title>10SHA</title><path class="cls-1" d="M13.1,33.8V1.1h-1C10.1,4.5,8,5.4,3.6,6.2l-2.2.4V8H7.8V33.8c0,3.3-.5,3.8-6.4,4.2v1.5H19.2V38C13.8,37.6,13.1,37.1,13.1,33.8Z"/><path class="cls-1" d="M36.2,1C26.9,1,21.7,9.6,21.7,20.5S26.9,40,36.2,40s14.4-8.6,14.4-19.5S45.4,1,36.2,1Zm0,37.4c-6.9,0-8.7-9.5-8.7-17.9S29.2,2.6,36.2,2.6s8.7,9.5,8.7,17.9S43.1,38.4,36.2,38.4Z"/></svg>